<mxfile host="app.diagrams.net" modified="2023-09-12T14:44:12.352Z" agent="Mozilla/5.0 (Windows NT 10.0; Win64; x64) AppleWebKit/537.36 (KHTML, like Gecko) Chrome/116.0.0.0 Safari/537.36" etag="bukhRAVXf7-CIO73tLeR" version="21.7.1" type="github">
  <diagram name="Page-1" id="q62bRp7j73unvZBwmudN">
    <mxGraphModel dx="880" dy="1546" grid="1" gridSize="10" guides="1" tooltips="1" connect="1" arrows="1" fold="1" page="1" pageScale="1" pageWidth="850" pageHeight="1100" math="0" shadow="0">
      <root>
        <mxCell id="0" />
        <mxCell id="1" parent="0" />
        <mxCell id="JUslkRQYs56KoztYHOo0-1" value="" style="group" vertex="1" connectable="0" parent="1">
          <mxGeometry x="160" y="-30" width="820" height="600" as="geometry" />
        </mxCell>
        <mxCell id="JUslkRQYs56KoztYHOo0-2" value="Service Provider Reimbursement" style="swimlane;html=1;childLayout=stackLayout;resizeParent=1;resizeParentMax=0;horizontal=0;startSize=20;horizontalStack=0;fillColor=#FFFFFF;swimlaneFillColor=default;container=0;strokeColor=#808080;" vertex="1" parent="JUslkRQYs56KoztYHOo0-1">
          <mxGeometry width="820" height="600" as="geometry" />
        </mxCell>
        <mxCell id="JUslkRQYs56KoztYHOo0-3" value="Service Provider" style="swimlane;html=1;startSize=20;horizontal=0;fillColor=#dae8fc;strokeColor=#808080;labelBackgroundColor=none;swimlaneFillColor=#FFFFFF;container=0;" vertex="1" parent="JUslkRQYs56KoztYHOo0-1">
          <mxGeometry x="20" width="800" height="120" as="geometry" />
        </mxCell>
        <mxCell id="JUslkRQYs56KoztYHOo0-11" value="Application and document upload" style="rounded=0;whiteSpace=wrap;html=1;fontFamily=Helvetica;fontSize=12;align=center;container=0;fillColor=#dae8fc;strokeColor=#000000;" vertex="1" parent="JUslkRQYs56KoztYHOo0-3">
          <mxGeometry x="460" y="30" width="80" height="60" as="geometry" />
        </mxCell>
        <mxCell id="JUslkRQYs56KoztYHOo0-17" value="Valid scan?" style="rhombus;whiteSpace=wrap;html=1;fontFamily=Helvetica;fontSize=12;align=center;container=0;fillColor=#DAE8FC;strokeColor=#000000;" vertex="1" parent="JUslkRQYs56KoztYHOo0-3">
          <mxGeometry x="310" y="20" width="80" height="80" as="geometry" />
        </mxCell>
        <mxCell id="JUslkRQYs56KoztYHOo0-12" style="edgeStyle=none;curved=1;rounded=0;orthogonalLoop=1;jettySize=auto;html=1;exitX=1;exitY=0.5;exitDx=0;exitDy=0;entryX=0;entryY=0.5;entryDx=0;entryDy=0;fontSize=12;startSize=8;endSize=8;" edge="1" parent="JUslkRQYs56KoztYHOo0-3" source="JUslkRQYs56KoztYHOo0-17" target="JUslkRQYs56KoztYHOo0-11">
          <mxGeometry relative="1" as="geometry" />
        </mxCell>
        <mxCell id="JUslkRQYs56KoztYHOo0-23" value="Yes" style="text;html=1;strokeColor=none;fillColor=none;align=center;verticalAlign=middle;whiteSpace=wrap;rounded=0;container=0;" vertex="1" parent="JUslkRQYs56KoztYHOo0-3">
          <mxGeometry x="390" y="37" width="60" height="30" as="geometry" />
        </mxCell>
        <mxCell id="JUslkRQYs56KoztYHOo0-4" value="Beneficiary" style="swimlane;html=1;startSize=20;horizontal=0;fillColor=#ffe6cc;strokeColor=#808080;swimlaneFillColor=#FFFFFF;container=0;" vertex="1" parent="JUslkRQYs56KoztYHOo0-1">
          <mxGeometry x="20" y="120" width="800" height="120" as="geometry" />
        </mxCell>
        <mxCell id="JUslkRQYs56KoztYHOo0-48" style="edgeStyle=orthogonalEdgeStyle;rounded=0;orthogonalLoop=1;jettySize=auto;html=1;exitX=0.5;exitY=0;exitDx=0;exitDy=0;" edge="1" parent="JUslkRQYs56KoztYHOo0-4" source="JUslkRQYs56KoztYHOo0-15">
          <mxGeometry relative="1" as="geometry">
            <mxPoint x="200" y="-30" as="targetPoint" />
          </mxGeometry>
        </mxCell>
        <mxCell id="JUslkRQYs56KoztYHOo0-15" value="Present entitlement voucher" style="rounded=0;whiteSpace=wrap;html=1;fontFamily=Helvetica;fontSize=12;align=center;container=0;fillColor=#ffe6cc;strokeColor=#000000;" vertex="1" parent="JUslkRQYs56KoztYHOo0-4">
          <mxGeometry x="160" y="30" width="80" height="60" as="geometry" />
        </mxCell>
        <mxCell id="JUslkRQYs56KoztYHOo0-14" value="Receive service or assistance" style="rounded=0;whiteSpace=wrap;html=1;fontFamily=Helvetica;fontSize=12;align=center;container=0;fillColor=#FFE6CC;strokeColor=#000000;" vertex="1" parent="JUslkRQYs56KoztYHOo0-4">
          <mxGeometry x="460" y="30" width="80" height="60" as="geometry" />
        </mxCell>
        <mxCell id="JUslkRQYs56KoztYHOo0-5" value="Accountant" style="swimlane;html=1;startSize=20;horizontal=0;fillColor=#e1d5e7;strokeColor=#808080;swimlaneFillColor=#FFFFFF;container=0;" vertex="1" parent="JUslkRQYs56KoztYHOo0-1">
          <mxGeometry x="20" y="240" width="800" height="120" as="geometry" />
        </mxCell>
        <mxCell id="JUslkRQYs56KoztYHOo0-54" style="edgeStyle=orthogonalEdgeStyle;rounded=0;orthogonalLoop=1;jettySize=auto;html=1;exitX=0;exitY=0.5;exitDx=0;exitDy=0;entryX=1;entryY=0.5;entryDx=0;entryDy=0;" edge="1" parent="JUslkRQYs56KoztYHOo0-5" source="JUslkRQYs56KoztYHOo0-24" target="JUslkRQYs56KoztYHOo0-28">
          <mxGeometry relative="1" as="geometry" />
        </mxCell>
        <mxCell id="JUslkRQYs56KoztYHOo0-24" value="Application and document inspection" style="rounded=0;whiteSpace=wrap;html=1;fontFamily=Helvetica;fontSize=12;align=center;container=0;fillColor=#e1d5e7;strokeColor=#000000;" vertex="1" parent="JUslkRQYs56KoztYHOo0-5">
          <mxGeometry x="460" y="30" width="80" height="60" as="geometry" />
        </mxCell>
        <mxCell id="JUslkRQYs56KoztYHOo0-28" value="Approve?" style="rhombus;whiteSpace=wrap;html=1;fontFamily=Helvetica;fontSize=12;align=center;container=0;fillColor=#e1d5e7;strokeColor=#000000;" vertex="1" parent="JUslkRQYs56KoztYHOo0-5">
          <mxGeometry x="320" y="20" width="80" height="80" as="geometry" />
        </mxCell>
        <mxCell id="JUslkRQYs56KoztYHOo0-30" value="Yes" style="text;html=1;strokeColor=none;fillColor=none;align=center;verticalAlign=middle;whiteSpace=wrap;rounded=0;container=0;" vertex="1" parent="JUslkRQYs56KoztYHOo0-5">
          <mxGeometry x="310" y="96" width="60" height="30" as="geometry" />
        </mxCell>
        <mxCell id="JUslkRQYs56KoztYHOo0-6" value="Cash Manager" style="swimlane;html=1;startSize=20;horizontal=0;swimlaneFillColor=#FFFFFF;fillColor=#CCFFCC;strokeColor=#808080;container=0;" vertex="1" parent="JUslkRQYs56KoztYHOo0-1">
          <mxGeometry x="20" y="360" width="800" height="120" as="geometry">
            <mxRectangle x="20" y="360" width="430" height="40" as="alternateBounds" />
          </mxGeometry>
        </mxCell>
        <mxCell id="JUslkRQYs56KoztYHOo0-62" style="edgeStyle=orthogonalEdgeStyle;rounded=0;orthogonalLoop=1;jettySize=auto;html=1;exitX=1;exitY=0.5;exitDx=0;exitDy=0;entryX=0;entryY=0.5;entryDx=0;entryDy=0;" edge="1" parent="JUslkRQYs56KoztYHOo0-6" source="JUslkRQYs56KoztYHOo0-35" target="JUslkRQYs56KoztYHOo0-61">
          <mxGeometry relative="1" as="geometry" />
        </mxCell>
        <mxCell id="JUslkRQYs56KoztYHOo0-35" value="Approve?" style="rhombus;whiteSpace=wrap;html=1;fontFamily=Helvetica;fontSize=12;fontColor=#000000;align=center;container=0;fillColor=#CCFFCC;" vertex="1" parent="JUslkRQYs56KoztYHOo0-6">
          <mxGeometry x="470" y="20" width="80" height="80" as="geometry" />
        </mxCell>
        <mxCell id="JUslkRQYs56KoztYHOo0-60" style="edgeStyle=orthogonalEdgeStyle;rounded=0;orthogonalLoop=1;jettySize=auto;html=1;exitX=1;exitY=0.5;exitDx=0;exitDy=0;" edge="1" parent="JUslkRQYs56KoztYHOo0-6" source="JUslkRQYs56KoztYHOo0-33">
          <mxGeometry relative="1" as="geometry">
            <mxPoint x="470" y="60" as="targetPoint" />
          </mxGeometry>
        </mxCell>
        <mxCell id="JUslkRQYs56KoztYHOo0-33" value="Application and document inspection" style="rounded=0;whiteSpace=wrap;html=1;fontFamily=Helvetica;fontSize=12;fontColor=#000000;align=center;container=0;fillColor=#CCFFCC;" vertex="1" parent="JUslkRQYs56KoztYHOo0-6">
          <mxGeometry x="320" y="30" width="80" height="60" as="geometry" />
        </mxCell>
        <mxCell id="JUslkRQYs56KoztYHOo0-40" value="Yes" style="text;html=1;strokeColor=none;fillColor=none;align=center;verticalAlign=middle;whiteSpace=wrap;rounded=0;container=0;" vertex="1" parent="JUslkRQYs56KoztYHOo0-6">
          <mxGeometry x="550" y="37" width="60" height="30" as="geometry" />
        </mxCell>
        <mxCell id="JUslkRQYs56KoztYHOo0-61" value="Prepare payments" style="rounded=0;whiteSpace=wrap;html=1;fontFamily=Helvetica;fontSize=12;fontColor=#000000;align=center;container=0;fillColor=#CCFFCC;" vertex="1" parent="JUslkRQYs56KoztYHOo0-6">
          <mxGeometry x="610" y="30" width="80" height="60" as="geometry" />
        </mxCell>
        <mxCell id="JUslkRQYs56KoztYHOo0-7" value="Payment Switch" style="swimlane;html=1;startSize=20;horizontal=0;fillColor=#F8CECC;swimlaneFillColor=#FFFFFF;strokeColor=#808080;container=0;" vertex="1" parent="JUslkRQYs56KoztYHOo0-1">
          <mxGeometry x="20" y="480" width="800" height="120" as="geometry" />
        </mxCell>
        <mxCell id="JUslkRQYs56KoztYHOo0-41" value="Transfer the reimbursement amount" style="rounded=0;whiteSpace=wrap;html=1;fontFamily=Helvetica;fontSize=12;fontColor=#000000;align=center;container=0;fillColor=#F8CECC;" vertex="1" parent="JUslkRQYs56KoztYHOo0-7">
          <mxGeometry x="610" y="30" width="80" height="60" as="geometry" />
        </mxCell>
        <mxCell id="JUslkRQYs56KoztYHOo0-70" style="edgeStyle=orthogonalEdgeStyle;rounded=0;orthogonalLoop=1;jettySize=auto;html=1;exitX=1;exitY=0.5;exitDx=0;exitDy=0;" edge="1" parent="JUslkRQYs56KoztYHOo0-7" source="JUslkRQYs56KoztYHOo0-67">
          <mxGeometry relative="1" as="geometry">
            <mxPoint x="330" y="60" as="targetPoint" />
          </mxGeometry>
        </mxCell>
        <mxCell id="JUslkRQYs56KoztYHOo0-67" value="Receive digitally signed accounts payable CSV" style="rounded=0;whiteSpace=wrap;html=1;fontFamily=Helvetica;fontSize=12;fontColor=#000000;align=center;container=0;fillColor=#F8CECC;" vertex="1" parent="JUslkRQYs56KoztYHOo0-7">
          <mxGeometry x="180" y="30" width="89" height="60" as="geometry" />
        </mxCell>
        <mxCell id="JUslkRQYs56KoztYHOo0-71" style="edgeStyle=orthogonalEdgeStyle;rounded=0;orthogonalLoop=1;jettySize=auto;html=1;exitX=1;exitY=0.5;exitDx=0;exitDy=0;" edge="1" parent="JUslkRQYs56KoztYHOo0-7" source="JUslkRQYs56KoztYHOo0-68">
          <mxGeometry relative="1" as="geometry">
            <mxPoint x="480" y="60" as="targetPoint" />
          </mxGeometry>
        </mxCell>
        <mxCell id="JUslkRQYs56KoztYHOo0-68" value="Verify digital signature and transfer details" style="rounded=0;whiteSpace=wrap;html=1;fontFamily=Helvetica;fontSize=12;fontColor=#000000;align=center;container=0;fillColor=#F8CECC;" vertex="1" parent="JUslkRQYs56KoztYHOo0-7">
          <mxGeometry x="330" y="30" width="84" height="60" as="geometry" />
        </mxCell>
        <mxCell id="JUslkRQYs56KoztYHOo0-78" value="Yes" style="text;html=1;strokeColor=none;fillColor=none;align=center;verticalAlign=middle;whiteSpace=wrap;rounded=0;container=0;" vertex="1" parent="JUslkRQYs56KoztYHOo0-7">
          <mxGeometry x="550" y="36" width="60" height="30" as="geometry" />
        </mxCell>
        <mxCell id="JUslkRQYs56KoztYHOo0-8" value="Login into Service Provider Portal" style="ellipse;whiteSpace=wrap;html=1;container=0;fillColor=#dae8fc;strokeColor=#000000;" vertex="1" parent="JUslkRQYs56KoztYHOo0-1">
          <mxGeometry x="60" y="23" width="74" height="74" as="geometry" />
        </mxCell>
        <mxCell id="JUslkRQYs56KoztYHOo0-9" value="Scan QR code in entitlement voucher" style="rounded=0;whiteSpace=wrap;html=1;fontFamily=Helvetica;fontSize=12;align=center;container=0;fillColor=#dae8fc;strokeColor=#000000;" vertex="1" parent="JUslkRQYs56KoztYHOo0-1">
          <mxGeometry x="180" y="30" width="80" height="60" as="geometry" />
        </mxCell>
        <mxCell id="JUslkRQYs56KoztYHOo0-10" style="edgeStyle=none;curved=1;rounded=0;orthogonalLoop=1;jettySize=auto;html=1;exitX=1;exitY=0.5;exitDx=0;exitDy=0;entryX=0;entryY=0.5;entryDx=0;entryDy=0;fontSize=12;startSize=8;endSize=8;" edge="1" parent="JUslkRQYs56KoztYHOo0-1" source="JUslkRQYs56KoztYHOo0-8" target="JUslkRQYs56KoztYHOo0-9">
          <mxGeometry relative="1" as="geometry" />
        </mxCell>
        <mxCell id="JUslkRQYs56KoztYHOo0-13" value="Receive payment" style="ellipse;whiteSpace=wrap;html=1;container=0;fillColor=#dae8fc;strokeColor=#000000;" vertex="1" parent="JUslkRQYs56KoztYHOo0-1">
          <mxGeometry x="712" y="25" width="70" height="70" as="geometry" />
        </mxCell>
        <mxCell id="JUslkRQYs56KoztYHOo0-49" value="" style="edgeStyle=none;curved=1;rounded=0;orthogonalLoop=1;jettySize=auto;html=1;exitX=1;exitY=0.5;exitDx=0;exitDy=0;entryX=0;entryY=0.5;entryDx=0;entryDy=0;fontSize=12;startSize=8;endSize=8;" edge="1" parent="JUslkRQYs56KoztYHOo0-1" source="JUslkRQYs56KoztYHOo0-9" target="JUslkRQYs56KoztYHOo0-17">
          <mxGeometry relative="1" as="geometry">
            <mxPoint x="380" y="180" as="sourcePoint" />
            <mxPoint x="560" y="180" as="targetPoint" />
          </mxGeometry>
        </mxCell>
        <mxCell id="JUslkRQYs56KoztYHOo0-52" style="edgeStyle=orthogonalEdgeStyle;rounded=0;orthogonalLoop=1;jettySize=auto;html=1;" edge="1" parent="JUslkRQYs56KoztYHOo0-1" source="JUslkRQYs56KoztYHOo0-11">
          <mxGeometry relative="1" as="geometry">
            <mxPoint x="560" y="310" as="targetPoint" />
            <Array as="points">
              <mxPoint x="600" y="60" />
              <mxPoint x="600" y="310" />
            </Array>
          </mxGeometry>
        </mxCell>
        <mxCell id="JUslkRQYs56KoztYHOo0-53" style="edgeStyle=orthogonalEdgeStyle;rounded=0;orthogonalLoop=1;jettySize=auto;html=1;exitX=0.5;exitY=1;exitDx=0;exitDy=0;entryX=0.5;entryY=0;entryDx=0;entryDy=0;" edge="1" parent="JUslkRQYs56KoztYHOo0-1" source="JUslkRQYs56KoztYHOo0-11" target="JUslkRQYs56KoztYHOo0-14">
          <mxGeometry relative="1" as="geometry" />
        </mxCell>
        <mxCell id="JUslkRQYs56KoztYHOo0-59" style="edgeStyle=orthogonalEdgeStyle;rounded=0;orthogonalLoop=1;jettySize=auto;html=1;exitX=0.5;exitY=1;exitDx=0;exitDy=0;" edge="1" parent="JUslkRQYs56KoztYHOo0-1" source="JUslkRQYs56KoztYHOo0-28" target="JUslkRQYs56KoztYHOo0-33">
          <mxGeometry relative="1" as="geometry" />
        </mxCell>
        <mxCell id="JUslkRQYs56KoztYHOo0-66" style="edgeStyle=orthogonalEdgeStyle;rounded=0;orthogonalLoop=1;jettySize=auto;html=1;exitX=1;exitY=0.5;exitDx=0;exitDy=0;entryX=0.5;entryY=1;entryDx=0;entryDy=0;" edge="1" parent="JUslkRQYs56KoztYHOo0-1" source="JUslkRQYs56KoztYHOo0-41" target="JUslkRQYs56KoztYHOo0-13">
          <mxGeometry relative="1" as="geometry" />
        </mxCell>
        <mxCell id="JUslkRQYs56KoztYHOo0-77" style="edgeStyle=orthogonalEdgeStyle;rounded=0;orthogonalLoop=1;jettySize=auto;html=1;exitX=0.5;exitY=1;exitDx=0;exitDy=0;" edge="1" parent="JUslkRQYs56KoztYHOo0-1" source="JUslkRQYs56KoztYHOo0-61" target="JUslkRQYs56KoztYHOo0-67">
          <mxGeometry relative="1" as="geometry">
            <Array as="points">
              <mxPoint x="670" y="490" />
              <mxPoint x="245" y="490" />
            </Array>
          </mxGeometry>
        </mxCell>
        <mxCell id="JUslkRQYs56KoztYHOo0-72" style="edgeStyle=orthogonalEdgeStyle;rounded=0;orthogonalLoop=1;jettySize=auto;html=1;exitX=1;exitY=0.5;exitDx=0;exitDy=0;entryX=0;entryY=0.5;entryDx=0;entryDy=0;" edge="1" parent="1" source="JUslkRQYs56KoztYHOo0-69" target="JUslkRQYs56KoztYHOo0-41">
          <mxGeometry relative="1" as="geometry" />
        </mxCell>
        <mxCell id="JUslkRQYs56KoztYHOo0-69" value="Valid details?" style="rhombus;whiteSpace=wrap;html=1;fontFamily=Helvetica;fontSize=12;fontColor=#000000;align=center;container=0;fillColor=#F8CECC;" vertex="1" parent="1">
          <mxGeometry x="660" y="470" width="80" height="80" as="geometry" />
        </mxCell>
      </root>
    </mxGraphModel>
  </diagram>
</mxfile>
